# xmcd
#
# Track frame offsets:
#	150
#	5836
#	17994
#	28802
#	38521
#	46004
#	59877
#	71060
#	78216
#	97022
#	110286
#	123040
#	141880
#	149006
#	162698
#	172201
#	190512
#	199642
#	208675
#	215075
#	225776
#	232981
#	245945
#	262461
#	275126
#	290842
#
# Disc length: 4058 seconds
#
# Revision: 1
# Processed by: cddbd v1.5.1PL2 Copyright (c) Steve Scherf et al.
# Submitted via: audiograbber 1.83.01
#
DISCID=9a0fd81a
DTITLE=Grenzlandchor Arnoldstein - Eine Reise durch 50 Jahre Chorgeschichte
DYEAR=1997
DGENRE=Folklore
TTITLE0=Jagriaß enk Gott
TTITLE1=Gernhabn tuat guat
TTITLE2=Untarn Laatarsteig zuabe
TTITLE3=Lei liabm
TTITLE4=Ibar de Graschelitzn
TTITLE5=Still träufelt milder Tau hernieder
TTITLE6=Von Rupertiberg in die Turia
TTITLE7=Wanns de Liab noh nit gabat
TTITLE8=Humoreske
TTITLE9=Ih hab dih gern
TTITLE10=La Montanara
TTITLE11=Oh Gleckle von Hamattal
TTITLE12=Kje so tiste stezice
TTITLE13=In Auswart
TTITLE14=Zwa Herzlan, zwa Ringlan
TTITLE15=Grün ist die Heide
TTITLE16=Ziagg a Wettar ibarn Kogl
TTITLE17=Wann ih di nit hätt
TTITLE18=Wenn ich ein Vöglein wär
TTITLE19=Is schon still umarn See
TTITLE20=Hore
TTITLE21=In Gedankn bin ih bei dir
TTITLE22=Zu dir ziagg s mih hin
TTITLE23=Der Sumar geaht umar
TTITLE24=In dar Mölltalleitn
TTITLE25=Dar Abndspat
EXTD=
EXTT0=
EXTT1=
EXTT2=
EXTT3=
EXTT4=
EXTT5=
EXTT6=
EXTT7=
EXTT8=
EXTT9=
EXTT10=
EXTT11=
EXTT12=
EXTT13=
EXTT14=
EXTT15=
EXTT16=
EXTT17=
EXTT18=
EXTT19=
EXTT20=
EXTT21=
EXTT22=
EXTT23=
EXTT24=
EXTT25=
PLAYORDER=
